<svg width="20" height="18" viewBox="0 0 20 18" fill="none" xmlns="http://www.w3.org/2000/svg">
<path d="M10 17.25C10 17.25 0.625 12 0.625 5.62501C0.625 4.49803 1.01546 3.40585 1.72996 2.53431C2.44445 1.66277 3.43884 1.0657 4.54393 0.844677C5.64903 0.623658 6.79657 0.792346 7.79131 1.32204C8.78605 1.85174 9.56655 2.70972 10 3.75001C10.4335 2.70972 11.2139 1.85174 12.2087 1.32204C13.2034 0.792346 14.351 0.623658 15.4561 0.844677C16.5612 1.0657 17.5555 1.66277 18.27 2.53431C18.9845 3.40585 19.375 4.49803 19.375 5.62501C19.375 12 10 17.25 10 17.25Z" fill="#E54900"/>
</svg>
