<svg width="18" height="18" viewBox="0 0 18 18" fill="none" xmlns="http://www.w3.org/2000/svg">
<path d="M11.25 16.5V12C11.25 11.801 11.171 11.6103 11.0303 11.4696C10.8897 11.329 10.6989 11.25 10.5 11.25H7.5C7.30109 11.25 7.11032 11.329 6.96967 11.4696C6.82902 11.6103 6.75 11.801 6.75 12V16.5C6.75 16.6989 6.67098 16.8896 6.53033 17.0303C6.38968 17.1709 6.19891 17.25 6 17.25H1.5C1.30109 17.25 1.11032 17.1709 0.96967 17.0303C0.829018 16.8896 0.75 16.6989 0.75 16.5V7.82808C0.751679 7.72429 0.77411 7.62188 0.815972 7.52688C0.857833 7.43189 0.918279 7.34623 0.99375 7.27496L8.49375 0.459332C8.63201 0.332844 8.81261 0.262695 9 0.262695C9.18739 0.262695 9.36799 0.332844 9.50625 0.459332L17.0062 7.27496C17.0817 7.34623 17.1422 7.43189 17.184 7.52688C17.2259 7.62188 17.2483 7.72429 17.25 7.82808V16.5C17.25 16.6989 17.171 16.8896 17.0303 17.0303C16.8897 17.1709 16.6989 17.25 16.5 17.25H12C11.8011 17.25 11.6103 17.1709 11.4697 17.0303C11.329 16.8896 11.25 16.6989 11.25 16.5Z" fill="#E54900"/>
</svg>
